<?xml version="1.0" encoding="UTF-8"?>
<!DOCTYPE svg PUBLIC "-//W3C//DTD SVG 1.1//EN" "http://www.w3.org/Graphics/SVG/1.1/DTD/svg11.dtd">
<!-- Creator: CorelDRAW -->
<svg xmlns="http://www.w3.org/2000/svg" xml:space="preserve" width="2048px" height="2048px" style="shape-rendering:geometricPrecision; text-rendering:geometricPrecision; image-rendering:optimizeQuality; fill-rule:evenodd; clip-rule:evenodd"
viewBox="0 0 2048 2048"
 xmlns:xlink="http://www.w3.org/1999/xlink">
 <defs>
  <style type="text/css">
   <![CDATA[
    .fil2 {fill:none}
    .fil0 {fill:#585959}
    .fil4 {fill:#B0B0B0}
    .fil1 {fill:#D1D1D1}
    .fil5 {fill:#FFFFFE}
    .fil3 {fill:#B0B0B0;fill-rule:nonzero}
   ]]>
  </style>
 </defs>
 <g id="Layer_x0020_1">
  <metadata id="CorelCorpID_0Corel-Layer"/>
  <g id="_348169360">
   <path id="_348170368" class="fil0" d="M1353.67 724.665c9.97914,4.05118 19.0996,9.42875 27.2091,15.7925l0.237402 0.145276c12.9496,10.3429 23.648,23.5843 31.0607,38.8323 7.02993,14.4579 11.0244,30.7288 11.1012,48.0426l0.137008 20.4862 -0.011811 0.125197c0.26811,121.544 0.766536,243.092 1.26378,364.636 0.22441,55.2107 0.451181,110.426 0.654331,165.637 0.0862205,30.6768 -12.078,58.4587 -31.7953,78.5788 -19.8567,20.2595 -47.4626,32.8559 -78.0804,32.9811 -79.369,0.304725 -158.74,0.63189 -238.109,0.957875 -215.784,0.883465 -431.572,1.77047 -647.354,2.25945l-61.1894 0.262205c-2.12362,0.0129921 -3.82087,-0.00236221 -5.10473,-0.0507874 -2.83347,-0.10748 -4.56615,-0.188977 -5.2193,-0.246851 -2.29843,-0.204331 -4.95118,-0.787796 -7.6193,-1.3748l-0.597638 -0.0992127 -0.871654 -0.0767717c-26.3126,-4.57678 -49.2414,-18.2953 -65.5642,-37.8012 -16.1008,-19.2402 -25.7268,-44.0634 -25.7823,-71.2371l-2.03622 -550.673c-0.0944883,-30.515 12.1335,-58.3276 31.9524,-78.5422 19.8638,-20.2583 47.4154,-32.8843 77.9197,-32.9811l946.531 -3.50315 0 -0.022441c1.81299,-0.0177165 3.46418,-0.0011811 4.95945,0.0496063 0.896457,0.0318898 2.51811,0.138189 4.78465,0.314173l0.261024 -0.102756 0.84567 0.0755906 0.113386 0.135827c10.7008,0.993308 20.8512,3.56339 30.3047,7.39961z"/>
   <g>
    <rect id="_348170248" class="fil1" transform="matrix(-0.902285 0.00217746 0.00217746 0.902285 1309.89 1103.97)" width="576" height="31.9996"/>
    <rect id="_348170128" class="fil1" transform="matrix(-0.902285 0.00217746 0.00217746 0.902285 1310.07 1176.15)" width="576" height="31.9996"/>
    <rect id="_348170008" class="fil1" transform="matrix(-0.902285 0.00217746 0.00217746 0.902285 1310.24 1248.33)" width="576" height="31.9996"/>
   </g>
   <g>
    <path id="_348169888" class="fil1" d="M428.143 920.526l-37.6524 0c5.34449,-18.0945 19.5354,-32.1803 37.6524,-37.6607l0 37.6607z"/>
    <path id="_348169816" class="fil1" d="M494.796 920.526l-10.585 0 0 62.2264 -34.8898 0 0 -102.439 40.0252 0c25.4114,0 46.6937,16.9606 53.6953,40.213l-48.2457 0z"/>
    <path id="_348169744" class="fil1" d="M505.381 1003.85l35.817 0c-6.58465,15.3248 -19.7516,26.8583 -35.817,31.6807l0 -31.6807z"/>
    <polygon id="_348169672" class="fil1" points="449.321,1003.85 484.211,1003.85 484.211,1038.11 449.321,1038.11 "/>
    <path id="_348169600" class="fil1" d="M428.143 1035.53c-16.0642,-4.82244 -29.224,-16.3559 -35.8087,-31.6807l35.8087 0 0 31.6807z"/>
    <path id="_348169480" class="fil1" d="M545.699 981.836c0,0.312992 -0.0744095,0.625985 -0.0744095,0.916536l-40.2437 0 0 -41.1307 40.3181 0 0 40.2142z"/>
    <path id="_348169504" class="fil1" d="M387.803 981.836l0 -40.2142 40.3394 0 0 41.1307 -40.2355 0c0,-0.290551 -0.103937,-0.603544 -0.103937,-0.916536z"/>
   </g>
  </g>
  <rect class="fil2" width="2048" height="2048"/>
  <rect class="fil2" x="255.999" y="255.999" width="1536" height="1536"/>
  <path class="fil3" d="M960.001 576l-110.001 0c-22.5827,0 -43.0914,-9.21615 -57.9378,-24.0626 -14.8465,-14.8465 -24.0626,-35.3551 -24.0626,-57.9378l0 -28.0004c0,-22.5827 9.21615,-43.0914 24.0626,-57.9378 14.8465,-14.8465 35.3551,-24.0626 57.9378,-24.0626l110.001 0 0 64.0016 -110.001 0c-4.91693,0 -9.41103,2.03504 -12.6874,5.31142 -3.27638,3.27638 -5.31142,7.77048 -5.31142,12.6874l0 28.0004c0,4.91693 2.03504,9.41103 5.31142,12.6874 3.27638,3.27638 7.77048,5.31142 12.6874,5.31142l110.001 0 0 64.0016z"/>
  <path class="fil4" d="M928.001 383.999l750.001 0c22.5827,0 43.0914,9.21615 57.9378,24.0626 14.8465,14.8465 24.0626,35.3551 24.0626,57.9378l0 1116c0,22.5827 -9.21615,43.0914 -24.0626,57.9378 -14.8465,14.8465 -35.3551,24.0626 -57.9378,24.0626l-700.001 0c-22.5827,0 -43.0914,-9.21615 -57.9378,-24.0626 -14.8465,-14.8465 -24.0626,-35.3551 -24.0626,-57.9378l0 -1166 0 -32.0008 32.0008 0z"/>
  <polygon class="fil5" points="1440,1408 1216,1408 1216,1344 1440,1344 "/>
  <polygon class="fil5" points="1536,1216 1120,1216 1120,1152 1536,1152 "/>
  <polygon class="fil5" points="1536,992 1120,992 1120,927.999 1536,927.999 "/>
  <polygon class="fil5" points="1536,767.997 1120,767.997 1120,703.995 1536,703.995 "/>
 </g>
</svg>
