<?xml version="1.0" encoding="UTF-8"?>
<!DOCTYPE svg PUBLIC "-//W3C//DTD SVG 1.1//EN" "http://www.w3.org/Graphics/SVG/1.1/DTD/svg11.dtd">
<!-- Creator: CorelDRAW -->
<svg xmlns="http://www.w3.org/2000/svg" xml:space="preserve" width="2048px" height="2048px" style="shape-rendering:geometricPrecision; text-rendering:geometricPrecision; image-rendering:optimizeQuality; fill-rule:evenodd; clip-rule:evenodd"
viewBox="0 0 2048 2048"
 xmlns:xlink="http://www.w3.org/1999/xlink">
 <defs>
  <style type="text/css">
   <![CDATA[
    .fil0 {fill:none}
    .fil3 {fill:#8A8A8A}
    .fil2 {fill:#9D9D9D}
    .fil1 {fill:#AAAAAA}
    .fil4 {fill:#ACACAC}
    .fil5 {fill:#BFBFBF}
   ]]>
  </style>
 </defs>
 <g id="Layer_x0020_1">
  <metadata id="CorelCorpID_0Corel-Layer"/>
  <rect class="fil0" width="2048" height="2048"/>
  <rect class="fil0" x="255.999" y="255.999" width="1536" height="1536"/>
  <g id="_350946888">
   <rect id="_350947992" class="fil0" x="255.999" y="257.607" width="1536" height="1536"/>
   <polygon id="_350947824" class="fil1" points="1015.28,228.48 1803,586.091 1821.88,594.661 1821.88,615.215 1821.88,1793.61 1821.88,1825.61 1789.88,1825.61 1504,1825.61 1472,1825.61 1472,1793.61 1472,867.768 575.998,867.768 575.998,1793.61 575.998,1825.61 543.997,1825.61 258.124,1825.61 226.123,1825.61 226.123,1793.61 226.123,615.215 226.123,595.237 244.374,586.465 988.409,228.854 1001.86,222.388 "/>
   <polygon id="_350947656" class="fil2" points="1019.09,387.016 1694.38,707.299 1667.13,765.05 1005.76,451.372 381.447,763.809 352.947,706.809 991.211,387.391 1005.16,380.411 "/>
   <rect id="_350947536" class="fil3" x="632.869" y="1633.61" width="160.24" height="160.24" rx="15" ry="15"/>
   <rect id="_350947416" class="fil4" x="859.035" y="1633.49" width="160.24" height="160.24" rx="15" ry="15"/>
   <rect id="_350947296" class="fil5" x="1085.2" y="1633.49" width="160.24" height="160.24" rx="15" ry="15"/>
   <rect id="_350947176" class="fil3" x="632.869" y="1417.61" width="160.24" height="160.24" rx="15" ry="15"/>
   <rect id="_350947056" class="fil4" x="859.035" y="1417.49" width="160.24" height="160.24" rx="15" ry="15"/>
   <rect id="_350946960" class="fil4" x="632.869" y="1203.77" width="160.24" height="160.24" rx="15" ry="15"/>
  </g>
 </g>
</svg>
