<?xml version="1.0" encoding="UTF-8"?>
<!DOCTYPE svg PUBLIC "-//W3C//DTD SVG 1.1//EN" "http://www.w3.org/Graphics/SVG/1.1/DTD/svg11.dtd">
<!-- Creator: CorelDRAW -->
<svg xmlns="http://www.w3.org/2000/svg" xml:space="preserve" width="2048px" height="2048px" style="shape-rendering:geometricPrecision; text-rendering:geometricPrecision; image-rendering:optimizeQuality; fill-rule:evenodd; clip-rule:evenodd"
viewBox="0 0 2048 2048"
 xmlns:xlink="http://www.w3.org/1999/xlink">
 <defs>
  <style type="text/css">
   <![CDATA[
    .fil1 {fill:none}
    .fil7 {fill:#414141;fill-rule:nonzero}
    .fil6 {fill:#616161;fill-rule:nonzero}
    .fil0 {fill:#6C6C6C;fill-rule:nonzero}
    .fil5 {fill:#888888;fill-rule:nonzero}
    .fil3 {fill:#B1B1B1;fill-rule:nonzero}
    .fil4 {fill:#B8B8B8;fill-rule:nonzero}
    .fil2 {fill:#BCBCBC;fill-rule:nonzero}
   ]]>
  </style>
 </defs>
 <g id="Layer_x0020_1">
  <metadata id="CorelCorpID_0Corel-Layer"/>
  <polygon class="fil0" points="883.29,1395.89 979.289,1395.89 979.289,1299.9 1043.29,1299.9 1043.29,1395.89 1139.29,1395.89 1139.29,1459.9 1043.29,1459.9 1043.29,1555.9 979.289,1555.9 979.289,1459.9 883.29,1459.9 "/>
  <rect class="fil1" width="2048" height="2048"/>
  <rect class="fil1" x="255.999" y="255.999" width="1536" height="1536"/>
  <g id="_345802672">
   <g>
    <path id="_345801880" class="fil2" d="M1599.86 1235.92c0,39.626 -16.0961,75.5587 -42.124,101.604 -26.0918,26.1083 -62.041,42.2646 -101.671,42.2646 -39.7075,0 -75.6721,-16.1114 -101.704,-42.1477 -26.0339,-26.0374 -42.1441,-62.0044 -42.1441,-101.714 0,-39.626 16.1539,-75.58 42.2611,-101.676 26.0374,-26.0268 61.963,-42.1252 101.587,-42.1252 39.7122,0 75.6603,16.0937 101.68,42.1134 26.0221,26.0232 42.1146,61.9737 42.1146,101.681z"/>
    <path id="_345802144" class="fil3" d="M1456.04 1379.79c-39.6969,-0.00708662 -75.6508,-16.1173 -101.676,-42.1477 -26.0339,-26.0374 -42.1441,-62.0044 -42.1441,-101.714 0,-39.626 16.1539,-75.58 42.2611,-101.676 26.0315,-26.0209 61.9465,-42.1181 101.56,-42.1252l0 287.664z"/>
   </g>
   <g>
    <path id="_345802360" class="fil4" d="M1375.62 1408l168.145 0c34.0016,0 63.9473,12.463 85.5698,33.2811 21.6862,20.8795 34.6689,49.7764 34.6689,82.5662l0 140.775 0 31.3784 -32.5051 0 -350.911 0 -32.5051 0 0 -31.3784 0 -140.775c0,-33.0012 14.8524,-61.7918 38.1685,-82.5154 23.4225,-20.8193 55.5225,-33.3319 89.3682,-33.3319z"/>
    <path id="_345802432" class="fil3" d="M1375.62 1408l80.4237 0 0 288 -175.455 0 -32.5051 0 0 -31.3784 0 -140.775c0,-33.0012 14.8524,-61.7918 38.1685,-82.5154 23.4225,-20.8193 55.5225,-33.3319 89.3682,-33.3319z"/>
   </g>
  </g>
  <g id="_345803440">
   <g>
    <path id="_345802816" class="fil2" d="M735.863 1235.92c0,39.626 -16.0961,75.5587 -42.124,101.604 -26.0918,26.1083 -62.041,42.2646 -101.671,42.2646 -39.7075,0 -75.6721,-16.1114 -101.704,-42.1477 -26.0339,-26.0374 -42.1441,-62.0044 -42.1441,-101.714 0,-39.626 16.1539,-75.58 42.2611,-101.676 26.0374,-26.0268 61.963,-42.1252 101.587,-42.1252 39.7122,0 75.6603,16.0937 101.68,42.1134 26.0221,26.0232 42.1146,61.9737 42.1146,101.681z"/>
    <path id="_345802936" class="fil3" d="M592.041 1379.79c-39.6969,-0.00708662 -75.6508,-16.1173 -101.676,-42.1477 -26.0339,-26.0374 -42.1441,-62.0044 -42.1441,-101.714 0,-39.626 16.1539,-75.58 42.2611,-101.676 26.0315,-26.0209 61.9465,-42.1181 101.56,-42.1252l0 287.664z"/>
   </g>
   <g>
    <path id="_345803152" class="fil4" d="M511.617 1408l168.145 0c34.0016,0 63.9473,12.463 85.5698,33.2811 21.6862,20.8795 34.6689,49.7764 34.6689,82.5662l0 140.775 0 31.3784 -32.5051 0 -350.911 0 -32.5051 0 0 -31.3784 0 -140.775c0,-33.0012 14.8524,-61.7918 38.1685,-82.5154 23.4225,-20.8193 55.5225,-33.3319 89.3682,-33.3319z"/>
    <path id="_345803248" class="fil3" d="M511.617 1408l80.4237 0 0 288 -175.455 0 -32.5051 0 0 -31.3784 0 -140.775c0,-33.0012 14.8524,-61.7918 38.1685,-82.5154 23.4225,-20.8193 55.5225,-33.3319 89.3682,-33.3319z"/>
   </g>
  </g>
  <polygon class="fil5" points="880.041,1390.87 976.04,1390.87 976.04,1294.87 1040.04,1294.87 1040.04,1390.87 1136.04,1390.87 1136.04,1454.87 1040.04,1454.87 1040.04,1550.87 976.04,1550.87 976.04,1454.87 880.041,1454.87 "/>
  <path class="fil2" d="M791.161 1095.02l-39.1701 0c-5.91969,0 -11.85,-0.836221 -17.6965,-2.39292 -18.1181,-4.82599 -34.213,-16.8095 -45.5882,-32.0776 -11.2311,-15.0756 -18.1807,-33.7595 -18.1807,-52.2225 0,-6.06851 0.778347,-12.2551 2.42599,-18.4429l0.302362 -1.00748 86.0103 -280.687c3.78898,-14.0894 11.3799,-26.5146 21.5906,-36.1323 10.1929,-9.60119 23.0906,-16.4303 37.5095,-19.3441l72.6426 -14.7319 17.0752 -3.46181 9.52324 14.5453 91.9489 140.443 87.8457 -139.107 9.36142 -14.824 17.1354 3.2374 72.4442 13.689 0.101575 0c14.5252,2.78032 27.6177,9.59528 38.0244,19.2827 10.4173,9.69804 18.137,22.2803 21.9071,36.5835l-0.022441 0.00590552 85.956 280.603 0.302362 0.905906c1.98898,7.49882 2.94449,15.1158 2.94449,22.5792l-0.101575 0c-0.0011811,17.1933 -4.78111,34.5095 -13.4114,48.541 -9.51261,15.4665 -23.7543,27.4536 -41.791,32.237 -5.40709,1.43386 -10.9536,2.2004 -16.5874,2.2004l-44.9941 0 0 -244.97 -437.508 0 0 244.549z"/>
  <line class="fil1" x1="803.827" y1="1216" x2="1216" y2= "1216" />
  <path class="fil6" d="M803.827 1184c-17.6728,0 -32.0008,14.328 -32.0008,32.0008 0,17.6728 14.328,32.0008 32.0008,32.0008l412.174 0c17.6728,0 32.0008,-14.328 32.0008,-32.0008 0,-17.6728 -14.328,-32.0008 -32.0008,-32.0008l-412.174 0z"/>
  <path class="fil2" d="M1148.36 506.413c0,38.1437 -15.4937,72.7312 -40.5473,97.8024 -25.1162,25.1315 -59.7201,40.6831 -97.8674,40.6831 -38.2217,0 -72.8398,-15.5079 -97.8981,-40.5697 -25.0595,-25.0642 -40.5674,-59.6847 -40.5674,-97.9087 0,-38.1437 15.5492,-72.7524 40.6796,-97.8721 25.0642,-25.0536 59.6457,-40.5496 97.7859,-40.5496 38.2264,0 72.8304,15.4914 97.8757,40.5378 25.0488,25.05 40.539,59.6552 40.539,97.8768z"/>
  <path class="fil7" d="M887.162 1088.84l239.556 0.0874016 0 -0.22441 5.94922 0 0 -142.227 -245.505 0 0 142.364zm271.557 63.8504l-303.558 -0.111024 -32.0008 -0.011811 0 -31.8638 0 -206.229 0 -32.0008 32.0008 0 309.507 0 32.0008 0 0 32.0008 0 206.229 0 32.0008 -32.0008 0 -5.94922 0 0 -0.0141732z"/>
 </g>
</svg>
